# xmcd CD database file
#
# Track frame offsets:
#	150
#	20062
#	38925
#	60462
#	78250
#	99907
#	119952
#	136235
#	154465
#	172060
#	187087
#	204122
#	222657
#
# Disc length: 3221 seconds
#
# Revision: 3
# Processed by: cddbd v1.5.2PL0 Copyright (c) Steve Scherf et al.
# Submitted via: CDex 1.50Beta7
#
DISCID=c00c930d
DTITLE=M Clan - Usar y tirar
DYEAR=1999
DGENRE=Rock
TTITLE0=Chilaba y cachimba
TTITLE1=Llamando a la Tierra
TTITLE2=Quédate a dormir
TTITLE3=No quiero verte
TTITLE4=La calma
TTITLE5=No tan bueno
TTITLE6=Eres funky
TTITLE7=Usar y tirar
TTITLE8=Mujer norteña
TTITLE9=Setenta y nueve
TTITLE10=Despierta
TTITLE11=39 grados
TTITLE12=Serenade
EXTD=YEAR: 1999
EXTT0=
EXTT1=
EXTT2=
EXTT3=
EXTT4=
EXTT5=
EXTT6=
EXTT7=
EXTT8=
EXTT9=
EXTT10=
EXTT11=
EXTT12=
PLAYORDER=
